# Blender 4.0.2
# www.blender.org
mtllib vehicle_car.mtl
o vehicle_car
v -0.500000 0.750000 1.000000
v 0.500000 0.750000 1.000000
v 0.500000 0.250000 1.250000
v -0.500000 0.250000 1.250000
v -0.500000 0.750000 -0.500000
v 0.500000 0.750000 -0.500000
v 0.500000 0.250000 -0.500000
v -0.500000 0.250000 -0.500000
v 0.500000 0.500000 -1.250000
v -0.500000 0.500000 -1.250000
v -0.500000 0.250000 -1.250000
v 0.500000 0.250000 -1.250000
v -0.500000 1.250000 -0.250000
v 0.500000 1.250000 -0.250000
v 0.500000 1.250000 0.500000
v -0.500000 1.250000 0.500000
v -0.500000 0.250000 0.750000
v 0.500000 0.250000 0.750000
v 0.500000 0.250000 0.500000
v -0.500000 0.250000 0.500000
v -0.500000 0.000000 0.750000
v 0.500000 0.000000 0.750000
v 0.500000 0.000000 0.500000
v -0.500000 0.000000 0.500000
v -0.500000 0.250000 -1.000000
v -0.500000 0.250000 -0.750000
v 0.500000 0.250000 -0.750000
v 0.500000 0.250000 -1.000000
v -0.500000 -0.000000 -0.750000
v -0.500000 -0.000000 -0.500000
v 0.500000 -0.000000 -0.500000
v 0.500000 -0.000000 -0.750000
vn -0.0000 0.4472 0.8944
vn -1.0000 -0.0000 -0.0000
vn 1.0000 -0.0000 -0.0000
vn -0.0000 0.9487 -0.3162
vn -0.0000 -0.0000 -1.0000
vn -0.0000 0.4472 -0.8944
vn -0.0000 0.7071 0.7071
vn -0.0000 1.0000 -0.0000
vn -0.0000 -1.0000 -0.0000
vn -0.0000 -0.0000 1.0000
vt 0.015600 0.921900
vt 0.078100 0.921900
vt 0.078100 0.984400
vt 0.015600 0.984400
vt 0.140600 0.953100
vt 0.265600 0.953100
vt 0.265600 0.984400
vt 0.140600 0.984400
vt 0.140600 0.921900
vt 0.140600 0.859400
vt 0.265600 0.859400
vt 0.265600 0.921900
vt 0.312500 0.921900
vt 0.281300 0.859400
vt 0.406300 0.859400
vt 0.375000 0.921900
vt 0.312500 0.984400
vt 0.281300 0.921900
vt 0.406300 0.921900
vt 0.375000 0.984400
vt 0.015600 0.765600
vt 0.078100 0.765600
vt 0.078100 0.828100
vt 0.015600 0.828100
vt 0.343800 0.906300
vt 0.406300 0.906300
vt 0.406300 0.968800
vt 0.343800 0.968800
vt 0.000000 0.765600
vt 0.062500 0.765600
vt 0.062500 0.828100
vt 0.000000 0.828100
s 0
usemtl vehicle_car_mtl.001
f 4/1/1 3/2/1 2/3/1 1/4/1
f 8/1/2 4/2/2 1/3/2 5/4/2
f 3/1/3 7/2/3 6/3/3 2/4/3
f 10/1/4 5/2/4 6/3/4 9/4/4
f 11/1/2 8/2/2 5/3/2 10/4/2
f 9/1/3 6/2/3 7/3/3 12/4/3
f 12/5/5 11/6/5 10/7/5 9/8/5
f 14/9/6 6/10/6 5/11/6 13/12/6
f 15/13/3 2/14/3 6/15/3 14/16/3
f 16/9/7 1/10/7 2/11/7 15/12/7
f 13/17/2 5/18/2 1/19/2 16/20/2
f 16/1/8 15/2/8 14/3/8 13/4/8
f 18/21/9 3/22/9 4/23/9 17/24/9
f 19/25/10 7/26/10 3/27/10 18/28/10
f 20/21/9 8/22/9 7/23/9 19/24/9
f 17/25/10 4/26/10 8/27/10 20/28/10
f 22/29/10 18/30/10 17/31/10 21/32/10
f 23/21/3 19/22/3 18/23/3 22/24/3
f 24/21/5 20/22/5 19/23/5 23/24/5
f 21/21/2 17/22/2 20/23/2 24/24/2
f 24/29/9 23/30/9 22/31/9 21/32/9
f 26/25/10 8/26/10 11/27/10 25/28/10
f 28/25/10 12/26/10 7/27/10 27/28/10
f 25/21/9 11/22/9 12/23/9 28/24/9
f 28/21/9 27/22/9 26/23/9 25/24/9
f 30/21/2 8/22/2 26/23/2 29/24/2
f 31/21/10 7/22/10 8/23/10 30/24/10
f 32/29/3 27/30/3 7/31/3 31/32/3
f 29/21/5 26/22/5 27/23/5 32/24/5
f 32/21/9 31/22/9 30/23/9 29/24/9
