# Blender 4.0.2
# www.blender.org
mtllib tile_corner.mtl
o tile_corner
v -2.000000 0.250000 -2.000000
v 2.000000 0.250000 -2.000000
v 2.000000 -0.500000 -2.000000
v -2.000000 -0.500000 -2.000000
v -2.000000 0.250000 -3.250000
v 2.000000 0.250000 -3.250000
v 2.000000 -0.500000 -3.250000
v -2.000000 -0.500000 -3.250000
v 3.250000 0.250000 -2.000000
v 3.250000 0.250000 -3.250000
v 3.250000 -0.500000 -3.250000
v 3.250000 -0.500000 -2.000000
v -3.250000 0.250000 -3.250000
v -3.250000 0.250000 -2.000000
v -3.250000 -0.500000 -2.000000
v -3.250000 -0.500000 -3.250000
v 3.250000 0.500000 -2.000000
v 2.000000 0.500000 -2.000000
v 2.000000 0.500000 -3.250000
v 3.250000 0.500000 -3.250000
v -3.250000 0.500000 -3.250000
v -2.000000 0.500000 -3.250000
v -2.000000 0.500000 -2.000000
v -3.250000 0.500000 -2.000000
v -2.000000 0.250000 2.000000
v 2.000000 0.250000 2.000000
v 2.000000 -0.500000 2.000000
v -2.000000 -0.500000 2.000000
v -2.000000 0.250000 3.250000
v 2.000000 0.250000 3.250000
v 2.000000 -0.500000 3.250000
v -2.000000 -0.500000 3.250000
v -2.000000 0.500000 3.250000
v -2.000000 0.500000 2.000000
v 2.000000 0.500000 2.000000
v 2.000000 0.500000 3.250000
v -3.250000 0.250000 2.000000
v -2.000000 0.250000 2.000000
v -2.000000 -0.500000 2.000000
v -3.250000 -0.500000 2.000000
v 3.250000 -0.500000 3.250000
v 2.000000 -0.500000 3.250000
v 2.000000 0.250000 3.250000
v 3.250000 0.250000 3.250000
v -3.250000 -0.500000 3.250000
v -3.250000 -0.500000 2.000000
v -3.250000 0.250000 2.000000
v -3.250000 0.250000 3.250000
v -3.250000 0.500000 3.250000
v -3.250000 0.250000 3.250000
v -3.250000 0.250000 2.000000
v -3.250000 0.500000 2.000000
v 3.250000 0.500000 3.250000
v 3.250000 0.250000 3.250000
v 2.000000 0.250000 3.250000
v 2.000000 0.500000 3.250000
vn -0.0000 -0.0000 -1.0000
vn -0.0000 1.0000 -0.0000
vn -0.0000 -1.0000 -0.0000
vn 1.0000 -0.0000 -0.0000
vn -1.0000 -0.0000 -0.0000
vn -0.0000 -0.0000 1.0000
vt 0.578100 0.296900
vt 0.640600 0.296900
vt 0.640600 0.359400
vt 0.578100 0.359400
vt 0.375000 0.437500
vt 0.750000 0.437500
vt 0.750000 0.562500
vt 0.375000 0.562500
vt 0.281300 0.968800
vt 0.218800 0.968800
vt 0.218800 0.828100
vt 0.281300 0.828100
vt 0.312500 0.968800
vt 0.187500 0.968800
vt 0.187500 0.828100
vt 0.312500 0.828100
vt 0.375000 0.343800
vt 0.375000 0.281300
vt 0.500000 0.281300
vt 0.500000 0.343800
vt 0.375000 0.250000
vt 0.500000 0.250000
vt 0.500000 0.375000
vt 0.375000 0.375000
vt 0.375000 0.937500
vt 0.750000 0.937500
vt 0.218800 0.484400
vt 0.281300 0.484400
vt 0.187500 0.484400
vt 0.312500 0.484400
vt 0.343800 0.906300
vt 0.406300 0.906300
vt 0.406300 0.968800
vt 0.343800 0.968800
vt 0.203100 0.968800
vt 0.203100 0.828100
vt 0.062500 0.750000
vt 0.062500 0.203100
vt 0.125000 0.203100
vt 0.125000 0.750000
vt 0.031300 0.750000
vt 0.031300 0.203100
vt 0.156300 0.203100
vt 0.156300 0.750000
s 0
usemtl tile_corner_mtl
f 7/1/1 8/2/1 5/3/1 6/4/1
f 1/5/2 2/6/2 6/7/2 5/8/2
f 8/1/3 7/2/3 3/3/3 4/4/3
f 11/1/1 7/2/1 6/3/1 10/4/1
f 12/1/3 3/2/3 7/3/3 11/4/3
f 12/1/4 11/2/4 10/3/4 9/4/4
f 16/1/3 8/2/3 4/3/3 15/4/3
f 13/1/1 5/2/1 8/3/1 16/4/1
f 16/1/5 15/2/5 14/3/5 13/4/5
f 19/9/5 6/10/5 2/11/5 18/12/5
f 20/1/1 10/2/1 6/3/1 19/4/1
f 17/1/4 9/2/4 10/3/4 20/4/4
f 20/13/2 19/14/2 18/15/2 17/16/2
f 22/1/1 5/2/1 13/3/1 21/4/1
f 23/17/4 1/18/4 5/19/4 22/20/4
f 24/17/6 14/18/6 1/19/6 23/20/6
f 21/1/5 13/2/5 14/3/5 24/4/5
f 24/21/2 23/22/2 22/23/2 21/24/2
f 26/25/2 2/8/2 1/7/2 25/26/2
f 28/1/3 4/2/3 3/3/3 27/4/3
f 32/1/3 28/2/3 27/3/3 31/4/3
f 32/1/6 31/2/6 30/3/6 29/4/6
f 35/9/1 26/10/1 25/27/1 34/28/1
f 33/1/6 29/2/6 30/3/6 36/4/6
f 36/13/2 35/14/2 34/29/2 33/30/2
f 38/5/2 1/6/2 14/7/2 37/8/2
f 40/1/3 15/2/3 4/3/3 39/4/3
f 37/1/5 14/2/5 15/3/5 40/4/5
f 42/1/3 3/2/3 12/3/3 41/4/3
f 41/1/4 12/2/4 9/3/4 44/4/4
f 44/1/6 43/2/6 42/3/6 41/4/6
f 46/1/3 28/2/3 32/3/3 45/4/3
f 47/31/1 25/32/1 28/33/1 46/34/1
f 45/1/6 32/2/6 29/3/6 48/4/6
f 48/1/5 47/2/5 46/3/5 45/4/5
f 50/1/6 29/2/6 33/3/6 49/4/6
f 52/35/1 34/36/1 25/12/1 51/9/1
f 49/14/2 33/15/2 34/16/2 52/13/2
f 52/1/5 51/2/5 50/3/5 49/4/5
f 54/1/4 9/2/4 17/3/4 53/4/4
f 56/37/5 18/38/5 2/39/5 55/40/5
f 53/41/2 17/42/2 18/43/2 56/44/2
f 56/1/6 55/2/6 54/3/6 53/4/6
