# Blender 4.0.2
# www.blender.org
mtllib tile_cross.mtl
o tile_cross
v -2.000000 0.250000 2.000000
v 2.000000 0.250000 2.000000
v 2.000000 -0.500000 2.000000
v -2.000000 -0.500000 2.000000
v -2.000000 0.250000 -2.000000
v 2.000000 0.250000 -2.000000
v 2.000000 -0.500000 -2.000000
v -2.000000 -0.500000 -2.000000
v 3.250000 0.250000 2.000000
v 3.250000 0.250000 -2.000000
v 3.250000 -0.500000 -2.000000
v 3.250000 -0.500000 2.000000
v -2.000000 0.250000 3.250000
v 2.000000 0.250000 3.250000
v 2.000000 -0.500000 3.250000
v -2.000000 -0.500000 3.250000
v -3.250000 0.250000 -2.000000
v -3.250000 0.250000 2.000000
v -3.250000 -0.500000 2.000000
v -3.250000 -0.500000 -2.000000
v 2.000000 0.250000 -3.250000
v -2.000000 0.250000 -3.250000
v -2.000000 -0.500000 -3.250000
v 2.000000 -0.500000 -3.250000
v 3.250000 0.250000 -3.250000
v 3.250000 -0.500000 -3.250000
v -3.250000 -0.500000 -3.250000
v -3.250000 0.250000 -3.250000
v 3.250000 -0.500000 3.250000
v 3.250000 0.250000 3.250000
v -3.250000 0.250000 3.250000
v -3.250000 -0.500000 3.250000
v 2.000000 0.500000 3.250000
v 2.000000 0.500000 2.000000
v 3.250000 0.500000 2.000000
v 3.250000 0.500000 3.250000
v 3.250000 0.500000 -3.250000
v 3.250000 0.500000 -2.000000
v 2.000000 0.500000 -2.000000
v 2.000000 0.500000 -3.250000
v -2.000000 0.500000 -3.250000
v -2.000000 0.500000 -2.000000
v -3.250000 0.500000 -2.000000
v -3.250000 0.500000 -3.250000
v -3.250000 0.500000 3.250000
v -3.250000 0.500000 2.000000
v -2.000000 0.500000 2.000000
v -2.000000 0.500000 3.250000
vn -0.0000 1.0000 -0.0000
vn -0.0000 -1.0000 -0.0000
vn 1.0000 -0.0000 -0.0000
vn -0.0000 -0.0000 1.0000
vn -1.0000 -0.0000 -0.0000
vn -0.0000 -0.0000 -1.0000
vt 0.343800 0.906300
vt 0.406300 0.906300
vt 0.406300 0.968800
vt 0.343800 0.968800
vt 0.031300 0.796900
vt 0.093800 0.796900
vt 0.093800 0.859400
vt 0.031300 0.859400
vt 0.750000 1.000000
vt 0.625000 1.000000
vt 0.625000 0.500000
vt 0.750000 0.500000
vt 0.000000 0.781300
vt 0.062500 0.781300
vt 0.062500 0.843800
vt 0.000000 0.843800
vt 0.015600 0.781300
vt 0.078100 0.781300
vt 0.078100 0.843800
vt 0.015600 0.843800
vt 0.031300 0.781300
vt 0.093800 0.781300
vt 0.093800 0.843800
vt 0.031300 0.843800
vt 0.031300 0.765600
vt 0.093800 0.765600
vt 0.093800 0.828100
vt 0.031300 0.828100
vt 0.015600 0.796900
vt 0.078100 0.796900
vt 0.078100 0.859400
vt 0.015600 0.859400
vt 0.000000 0.796900
vt 0.062500 0.796900
vt 0.062500 0.859400
vt 0.000000 0.859400
vt 0.125000 0.968800
vt 0.125000 0.906300
vt 0.250000 0.906300
vt 0.250000 0.968800
vt 0.125000 0.984400
vt 0.125000 0.921900
vt 0.250000 0.921900
vt 0.250000 0.984400
vt 0.125000 0.875000
vt 0.250000 0.875000
vt 0.250000 1.000000
vt 0.125000 1.000000
vt 0.046900 0.781300
vt 0.109400 0.781300
vt 0.109400 0.843800
vt 0.046900 0.843800
s 0
usemtl tile_cross_mtl
f 1/1/1 2/2/1 6/3/1 5/4/1
f 8/5/2 7/6/2 3/7/2 4/8/2
f 10/9/1 6/10/1 2/11/1 9/12/1
f 12/13/2 3/14/2 7/15/2 11/16/2
f 12/5/3 11/6/3 10/7/3 9/8/3
f 14/9/1 2/10/1 1/11/1 13/12/1
f 16/17/2 4/18/2 3/19/2 15/20/2
f 16/21/4 15/22/4 14/23/4 13/24/4
f 18/9/1 1/10/1 5/11/1 17/12/1
f 20/21/2 8/22/2 4/23/2 19/24/2
f 20/17/5 19/18/5 18/19/5 17/20/5
f 22/9/1 5/10/1 6/11/1 21/12/1
f 24/17/2 7/18/2 8/19/2 23/20/2
f 24/21/6 23/22/6 22/23/6 21/24/6
f 26/17/2 11/18/2 7/19/2 24/20/2
f 25/25/3 10/26/3 11/27/3 26/28/3
f 26/17/6 24/18/6 21/19/6 25/20/6
f 23/17/2 8/18/2 20/19/2 27/20/2
f 27/5/5 20/6/5 17/7/5 28/8/5
f 28/25/6 22/26/6 23/27/6 27/28/6
f 15/29/2 3/30/2 12/31/2 29/32/2
f 29/21/3 12/22/3 9/23/3 30/24/3
f 30/5/4 14/6/4 15/7/4 29/8/4
f 32/33/2 19/34/2 4/35/2 16/36/2
f 31/29/5 18/30/5 19/31/5 32/32/5
f 32/29/4 16/30/4 13/31/4 31/32/4
f 34/37/5 2/38/5 14/39/5 33/40/5
f 35/41/6 9/42/6 2/43/6 34/44/6
f 36/17/3 30/18/3 9/19/3 35/20/3
f 33/29/4 14/30/4 30/31/4 36/32/4
f 36/45/1 35/46/1 34/47/1 33/48/1
f 38/49/3 10/50/3 25/51/3 37/52/3
f 39/41/4 6/42/4 10/43/4 38/44/4
f 40/39/5 21/40/5 6/37/5 39/38/5
f 37/29/6 25/30/6 21/31/6 40/32/6
f 40/45/1 39/46/1 38/47/1 37/48/1
f 42/37/3 5/38/3 22/39/3 41/40/3
f 43/37/4 17/38/4 5/39/4 42/40/4
f 44/29/5 28/30/5 17/31/5 43/32/5
f 41/21/6 22/22/6 28/23/6 44/24/6
f 44/45/1 43/46/1 42/47/1 41/48/1
f 46/21/5 18/22/5 31/23/5 45/24/5
f 47/37/6 1/38/6 18/39/6 46/40/6
f 48/37/3 13/38/3 1/39/3 47/40/3
f 45/29/4 31/30/4 13/31/4 48/32/4
f 48/45/1 47/46/1 46/47/1 45/48/1
