# Blender 4.0.2
# www.blender.org
mtllib tile_cross.mtl
o tile_cross
v -2.000000 0.250000 2.000000
v 2.000000 0.250000 2.000000
v 2.000000 -0.500000 2.000000
v -2.000000 -0.500000 2.000000
v -2.000000 0.250000 -2.000000
v 2.000000 0.250000 -2.000000
v 2.000000 -0.500000 -2.000000
v -2.000000 -0.500000 -2.000000
v 3.250000 0.250000 2.000000
v 3.250000 0.250000 -2.000000
v 3.250000 -0.500000 -2.000000
v 3.250000 -0.500000 2.000000
v -2.000000 0.250000 3.250000
v 2.000000 0.250000 3.250000
v 2.000000 -0.500000 3.250000
v -2.000000 -0.500000 3.250000
v -3.250000 0.250000 -2.000000
v -3.250000 0.250000 2.000000
v -3.250000 -0.500000 2.000000
v -3.250000 -0.500000 -2.000000
v 2.000000 0.250000 -3.250000
v -2.000000 0.250000 -3.250000
v -2.000000 -0.500000 -3.250000
v 2.000000 -0.500000 -3.250000
v 3.250000 0.250000 -3.250000
v 3.250000 -0.500000 -3.250000
v -3.250000 -0.500000 -3.250000
v -3.250000 0.250000 -3.250000
v 3.250000 -0.500000 3.250000
v 3.250000 0.250000 3.250000
v -3.250000 0.250000 3.250000
v -3.250000 -0.500000 3.250000
v 2.000000 0.500000 3.250000
v 2.000000 0.500000 2.000000
v 3.250000 0.500000 2.000000
v 3.250000 0.500000 3.250000
v 3.250000 0.500000 -3.250000
v 3.250000 0.500000 -2.000000
v 2.000000 0.500000 -2.000000
v 2.000000 0.500000 -3.250000
v -2.000000 0.500000 -3.250000
v -2.000000 0.500000 -2.000000
v -3.250000 0.500000 -2.000000
v -3.250000 0.500000 -3.250000
v -3.250000 0.500000 3.250000
v -3.250000 0.500000 2.000000
v -2.000000 0.500000 2.000000
v -2.000000 0.500000 3.250000
vn -0.0000 1.0000 -0.0000
vn -0.0000 -1.0000 -0.0000
vn 1.0000 -0.0000 -0.0000
vn -0.0000 -0.0000 1.0000
vn -1.0000 -0.0000 -0.0000
vn -0.0000 -0.0000 -1.0000
vt 0.343800 0.906300
vt 0.406300 0.906300
vt 0.406300 0.968800
vt 0.343800 0.968800
vt 0.828100 0.296900
vt 0.890600 0.296900
vt 0.890600 0.359400
vt 0.828100 0.359400
vt 0.750000 0.984400
vt 0.625000 0.984400
vt 0.625000 0.484400
vt 0.750000 0.484400
vt 0.062500 0.906300
vt 0.062500 0.843800
vt 0.187500 0.843800
vt 0.187500 0.906300
vt 0.062500 0.812500
vt 0.187500 0.812500
vt 0.187500 0.937500
vt 0.062500 0.937500
s 0
usemtl tile_cross_mtl.001
f 1/1/1 2/2/1 6/3/1 5/4/1
f 8/5/2 7/6/2 3/7/2 4/8/2
f 10/9/1 6/10/1 2/11/1 9/12/1
f 12/5/2 3/6/2 7/7/2 11/8/2
f 12/5/3 11/6/3 10/7/3 9/8/3
f 14/9/1 2/10/1 1/11/1 13/12/1
f 16/5/2 4/6/2 3/7/2 15/8/2
f 16/5/4 15/6/4 14/7/4 13/8/4
f 18/9/1 1/10/1 5/11/1 17/12/1
f 20/5/2 8/6/2 4/7/2 19/8/2
f 20/5/5 19/6/5 18/7/5 17/8/5
f 22/9/1 5/10/1 6/11/1 21/12/1
f 24/5/2 7/6/2 8/7/2 23/8/2
f 24/5/6 23/6/6 22/7/6 21/8/6
f 26/5/2 11/6/2 7/7/2 24/8/2
f 25/5/3 10/6/3 11/7/3 26/8/3
f 26/5/6 24/6/6 21/7/6 25/8/6
f 23/5/2 8/6/2 20/7/2 27/8/2
f 27/5/5 20/6/5 17/7/5 28/8/5
f 28/5/6 22/6/6 23/7/6 27/8/6
f 15/5/2 3/6/2 12/7/2 29/8/2
f 29/5/3 12/6/3 9/7/3 30/8/3
f 30/5/4 14/6/4 15/7/4 29/8/4
f 32/5/2 19/6/2 4/7/2 16/8/2
f 31/5/5 18/6/5 19/7/5 32/8/5
f 32/5/4 16/6/4 13/7/4 31/8/4
f 34/13/5 2/14/5 14/15/5 33/16/5
f 35/13/6 9/14/6 2/15/6 34/16/6
f 36/5/3 30/6/3 9/7/3 35/8/3
f 33/5/4 14/6/4 30/7/4 36/8/4
f 36/17/1 35/18/1 34/19/1 33/20/1
f 38/5/3 10/6/3 25/7/3 37/8/3
f 39/13/4 6/14/4 10/15/4 38/16/4
f 40/15/5 21/16/5 6/13/5 39/14/5
f 37/5/6 25/6/6 21/7/6 40/8/6
f 40/17/1 39/18/1 38/19/1 37/20/1
f 42/13/3 5/14/3 22/15/3 41/16/3
f 43/13/4 17/14/4 5/15/4 42/16/4
f 44/5/5 28/6/5 17/7/5 43/8/5
f 41/5/6 22/6/6 28/7/6 44/8/6
f 44/17/1 43/18/1 42/19/1 41/20/1
f 46/5/5 18/6/5 31/7/5 45/8/5
f 47/13/6 1/14/6 18/15/6 46/16/6
f 48/13/3 13/14/3 1/15/3 47/16/3
f 45/5/4 31/6/4 13/7/4 48/8/4
f 48/17/1 47/18/1 46/19/1 45/20/1
