# Blender 4.0.2
# www.blender.org
mtllib tile_t.mtl
o tile_t
v -3.250000 0.250000 2.000000
v 3.250000 0.250000 2.000000
v 3.250000 -0.500000 2.000000
v -3.250000 -0.500000 2.000000
v -3.250000 0.250000 -2.000000
v 3.250000 0.250000 -2.000000
v 3.250000 -0.500000 -2.000000
v -3.250000 -0.500000 -2.000000
v -3.250000 0.250000 3.250000
v 3.250000 0.250000 3.250000
v 3.250000 -0.500000 3.250000
v -3.250000 -0.500000 3.250000
v -3.250000 0.500000 3.250000
v -3.250000 0.500000 2.000000
v 3.250000 0.500000 2.000000
v 3.250000 0.500000 3.250000
v 2.000000 0.250000 -2.000000
v -2.000000 0.250000 -2.000000
v -2.000000 -0.500000 -2.000000
v 2.000000 -0.500000 -2.000000
v 2.000000 -0.500000 -3.250000
v 3.250000 -0.500000 -3.250000
v 3.250000 0.250000 -3.250000
v 2.000000 0.250000 -3.250000
v -2.000000 0.250000 -3.250000
v -3.250000 0.250000 -3.250000
v -3.250000 -0.500000 -3.250000
v -2.000000 -0.500000 -3.250000
v -2.000000 0.500000 -3.250000
v -2.000000 0.500000 -2.000000
v -3.250000 0.500000 -2.000000
v -3.250000 0.500000 -3.250000
v 3.250000 0.500000 -3.250000
v 3.250000 0.500000 -2.000000
v 2.000000 0.500000 -2.000000
v 2.000000 0.500000 -3.250000
vn -0.0000 1.0000 -0.0000
vn -1.0000 -0.0000 -0.0000
vn 1.0000 -0.0000 -0.0000
vn -0.0000 -1.0000 -0.0000
vn -0.0000 -0.0000 1.0000
vn -0.0000 -0.0000 -1.0000
vt 0.312500 0.875000
vt 0.312500 0.125000
vt 0.687500 0.125000
vt 0.687500 0.875000
vt 0.015600 0.671900
vt 0.078100 0.671900
vt 0.078100 0.734400
vt 0.015600 0.734400
vt 0.218800 0.187500
vt 0.281300 0.187500
vt 0.281300 0.937500
vt 0.218800 0.937500
vt 0.187500 0.187500
vt 0.312500 0.187500
vt 0.312500 0.937500
vt 0.187500 0.937500
vt 0.812500 0.937500
vt 0.687500 0.937500
vt 0.687500 0.437500
vt 0.812500 0.437500
vt 0.031300 0.906300
vt 0.031300 0.843800
vt 0.156300 0.843800
vt 0.156300 0.906300
vt 0.031300 0.812500
vt 0.156300 0.812500
vt 0.156300 0.937500
vt 0.031300 0.937500
s 0
usemtl tile_t_mtl
f 1/1/1 2/2/1 6/3/1 5/4/1
f 8/5/2 4/6/2 1/7/2 5/8/2
f 3/5/3 7/6/3 6/7/3 2/8/3
f 8/5/4 7/6/4 3/7/4 4/8/4
f 11/5/3 3/6/3 2/7/3 10/8/3
f 12/5/4 4/6/4 3/7/4 11/8/4
f 9/5/2 1/6/2 4/7/2 12/8/2
f 12/5/5 11/6/5 10/7/5 9/8/5
f 14/5/2 1/6/2 9/7/2 13/8/2
f 15/9/6 2/10/6 1/11/6 14/12/6
f 16/5/3 10/6/3 2/7/3 15/8/3
f 13/5/5 9/6/5 10/7/5 16/8/5
f 16/13/1 15/14/1 14/15/1 13/16/1
f 22/5/4 7/6/4 20/7/4 21/8/4
f 23/5/3 6/6/3 7/7/3 22/8/3
f 24/5/6 23/6/6 22/7/6 21/8/6
f 27/5/2 8/6/2 5/7/2 26/8/2
f 28/5/4 19/6/4 8/7/4 27/8/4
f 28/5/6 27/6/6 26/7/6 25/8/6
f 21/5/4 20/6/4 19/7/4 28/8/4
f 21/5/6 28/6/6 25/7/6 24/8/6
f 25/17/1 18/18/1 17/19/1 24/20/1
f 30/21/3 18/22/3 25/23/3 29/24/3
f 31/21/5 5/22/5 18/23/5 30/24/5
f 32/5/2 26/6/2 5/7/2 31/8/2
f 29/5/6 25/6/6 26/7/6 32/8/6
f 32/25/1 31/26/1 30/27/1 29/28/1
f 34/5/3 6/6/3 23/7/3 33/8/3
f 35/21/5 17/22/5 6/23/5 34/24/5
f 36/21/2 24/22/2 17/23/2 35/24/2
f 33/5/6 23/6/6 24/7/6 36/8/6
f 36/25/1 35/26/1 34/27/1 33/28/1
