# Blender 4.0.2
# www.blender.org
mtllib tile_hospital.mtl
o tile_hospital
v 3.249900 0.501200 3.249900
v 3.249800 0.501200 -3.249800
v 3.250000 -0.498700 -3.250000
v 3.250000 -0.498700 3.250100
v -3.250100 0.498700 3.250100
v -3.250000 0.498700 -3.250000
v -3.249900 -0.501200 -3.249800
v -3.249900 -0.501200 3.249900
v -2.499800 0.498300 1.750600
v -2.499100 0.498300 -1.751500
v 2.499500 0.500300 -1.750400
v 2.498900 0.500300 1.751400
v -2.499000 3.250900 1.750000
v -2.498300 3.250900 -1.750900
v 2.499600 3.249900 -1.750400
v 2.499000 3.249900 1.751400
vn 1.0000 0.0002 -0.0000
vn -1.0000 -0.0001 -0.0000
vn -0.0000 -0.0000 1.0000
vn -0.0000 -0.0000 -1.0000
vn 0.0004 -1.0000 -0.0000
vn 0.0005 1.0000 -0.0000
vn -0.0004 1.0000 0.0004
vn -0.0012 1.0000 -0.0000
vn -0.0004 1.0000 -0.0004
vn -1.0000 0.0003 -0.0002
vn 0.0002 0.0001 -1.0000
vn 1.0000 -0.0000 0.0002
vn -0.0002 0.0001 1.0000
vn 0.0002 1.0000 -0.0000
vt 0.000000 0.906300
vt 0.062500 0.906300
vt 0.062500 0.968800
vt 0.000000 0.968800
vt 0.343800 0.890600
vt 0.312500 0.875000
vt 0.437500 0.875000
vt 0.406300 0.890600
vt 0.328100 0.906300
vt 0.421900 0.906300
vt 0.484400 0.750000
vt 0.484400 0.500000
vt 0.828100 0.500000
vt 0.828100 0.750000
vt 0.437500 1.000000
vt 0.437500 0.750000
vt 0.937500 0.750000
vt 0.937500 1.000000
vt 0.468800 0.750000
vt 0.468800 0.500000
vt 0.843800 0.500000
vt 0.843800 0.750000
vt 0.062500 0.937500
vt 0.125000 0.937500
vt 0.125000 1.000000
vt 0.062500 1.000000
s 0
usemtl tile_hospital_mtl
f 4/1/1 3/2/1 2/3/1 1/4/1
f 7/1/2 8/2/2 5/3/2 6/4/2
f 8/1/3 4/2/3 1/3/3 5/4/3
f 3/1/4 7/2/4 6/3/4 2/4/4
f 8/1/5 7/2/5 3/3/5 4/4/5
f 10/5/6 6/6/6 5/7/6 9/8/6
f 11/9/7 2/6/7 6/7/7 10/10/7
f 12/5/8 1/6/8 2/7/8 11/8/8
f 9/9/9 5/6/9 1/7/9 12/10/9
f 14/11/10 10/12/10 9/13/10 13/14/10
f 15/15/11 11/16/11 10/17/11 14/18/11
f 16/19/12 12/20/12 11/21/12 15/22/12
f 13/15/13 9/16/13 12/17/13 16/18/13
f 16/23/14 15/24/14 14/25/14 13/26/14
