# Blender 4.0.2
# www.blender.org
mtllib tile_edge.mtl
o tile_edge
v 2.000000 0.250000 -3.249300
v -1.999300 0.250000 -3.252400
v -1.999300 -0.500000 -3.252400
v 2.000000 -0.500000 -3.249300
v 2.001500 0.250000 1.999300
v -2.001600 0.250000 1.999400
v -2.001600 -0.500000 1.999400
v 2.001500 -0.500000 1.999300
v -3.249500 0.250000 -3.252400
v -3.255800 0.250000 1.996100
v -3.255800 -0.500000 1.996100
v -3.249500 -0.500000 -3.252400
v -3.249500 0.500000 -3.252400
v -1.999300 0.500000 -3.252400
v -2.001600 0.500000 1.999400
v -3.255800 0.500000 1.996100
v 3.246200 0.250000 2.002400
v 3.250200 0.250000 -3.248700
v 3.250200 -0.500000 -3.248700
v 3.246200 -0.500000 2.002400
v 3.246200 0.500000 2.002400
v 2.001500 0.500000 1.999300
v 2.000000 0.500000 -3.249300
v 3.250200 0.500000 -3.248700
v 3.248500 -0.500000 3.250900
v 1.996900 -0.500000 3.251100
v 1.996900 0.250000 3.251100
v 3.248500 0.250000 3.250900
v -3.250600 0.250000 3.249500
v -2.003200 0.250000 3.248700
v -2.003200 -0.500000 3.248700
v -3.250600 -0.500000 3.249500
v -2.001500 0.250000 3.249400
v 2.001500 0.250000 3.249300
v 2.001500 -0.500000 3.249300
v -2.001500 -0.500000 3.249400
v -2.001500 0.500000 3.249400
v 2.001500 0.500000 3.249300
v -2.004200 0.500000 3.249400
v -2.004200 0.250000 3.249400
v -3.258500 0.250000 3.246100
v -3.258500 0.500000 3.246100
v 3.243700 0.500000 3.252400
v 3.243700 0.250000 3.252400
v 1.999000 0.250000 3.249300
v 1.999000 0.500000 3.249300
vn 0.0008 -0.0000 -1.0000
vn -0.0000 1.0000 -0.0000
vn -0.0000 -1.0000 -0.0000
vn -0.0000 -0.0000 -1.0000
vn -1.0000 -0.0000 -0.0012
vn 1.0000 -0.0000 0.0004
vn 0.0005 -0.0000 -1.0000
vn 1.0000 -0.0000 0.0008
vn -1.0000 -0.0000 0.0003
vn 1.0000 -0.0000 -0.0018
vn 0.0002 -0.0000 1.0000
vn -1.0000 -0.0000 0.0041
vn 0.0006 -0.0000 1.0000
vn -0.0000 -0.0000 1.0000
vn 1.0000 -0.0000 0.0021
vn -1.0000 -0.0000 -0.0022
vn -0.0026 -0.0000 1.0000
vn 1.0000 -0.0000 0.0020
vn -1.0000 -0.0000 -0.0020
vn -0.0025 -0.0000 1.0000
vt 0.843800 0.921900
vt 0.906300 0.921900
vt 0.906300 0.984400
vt 0.843800 0.984400
vt 0.390600 0.359400
vt 0.765600 0.359400
vt 0.765600 0.984400
vt 0.390600 0.984400
vt 0.859400 0.921900
vt 0.921900 0.921900
vt 0.921900 0.984400
vt 0.859400 0.984400
vt 0.859400 0.906300
vt 0.921900 0.906300
vt 0.921900 0.968800
vt 0.859400 0.968800
vt 0.250000 0.312500
vt 0.312500 0.312500
vt 0.312500 0.937500
vt 0.250000 0.937500
vt 0.218800 0.312500
vt 0.343800 0.312500
vt 0.343800 0.937500
vt 0.218800 0.937500
vt 0.859400 0.781300
vt 0.921900 0.781300
vt 0.921900 0.843800
vt 0.859400 0.843800
vt 0.062500 0.250000
vt 0.125000 0.250000
vt 0.125000 0.750000
vt 0.062500 0.750000
vt 0.890600 0.796900
vt 0.953100 0.796900
vt 0.953100 0.859400
vt 0.890600 0.859400
vt 0.031300 0.250000
vt 0.156300 0.250000
vt 0.156300 0.750000
vt 0.031300 0.750000
vt 0.343800 0.906300
vt 0.406300 0.906300
vt 0.406300 0.968800
vt 0.343800 0.968800
vt 0.031300 0.843800
vt 0.156300 0.843800
vt 0.156300 0.968800
vt 0.031300 0.968800
s 0
usemtl tile_edge_mtl
f 4/1/1 3/2/1 2/3/1 1/4/1
f 1/5/2 2/6/2 6/7/2 5/8/2
f 8/9/3 7/10/3 3/11/3 4/12/3
f 12/9/3 3/10/3 7/11/3 11/12/3
f 9/9/4 2/10/4 3/11/4 12/12/4
f 12/13/5 11/14/5 10/15/5 9/16/5
f 14/1/4 2/2/4 9/3/4 13/4/4
f 15/17/6 6/18/6 2/19/6 14/20/6
f 13/1/5 9/2/5 10/3/5 16/4/5
f 16/21/2 15/22/2 14/23/2 13/24/2
f 19/9/7 4/10/7 1/11/7 18/12/7
f 20/9/3 8/10/3 4/11/3 19/12/3
f 20/1/8 19/2/8 18/3/8 17/4/8
f 23/17/9 1/18/9 5/19/9 22/20/9
f 24/9/7 18/10/7 1/11/7 23/12/7
f 21/9/8 17/10/8 18/11/8 24/12/8
f 24/21/2 23/22/2 22/23/2 21/24/2
f 26/1/3 8/2/3 20/3/3 25/4/3
f 25/1/10 20/2/10 17/3/10 28/4/10
f 28/1/11 27/2/11 26/3/11 25/4/11
f 32/9/3 11/10/3 7/11/3 31/12/3
f 29/1/12 10/2/12 11/3/12 32/4/12
f 32/25/13 31/26/13 30/27/13 29/28/13
f 36/9/3 7/10/3 8/11/3 35/12/3
f 36/1/14 35/2/14 34/3/14 33/4/14
f 22/29/4 5/30/4 6/31/4 15/32/4
f 37/33/14 33/34/14 34/35/14 38/36/14
f 38/37/2 22/38/2 15/39/2 37/40/2
f 40/41/15 6/42/15 15/43/15 39/44/15
f 42/1/16 16/2/16 10/3/16 41/4/16
f 39/45/2 15/46/2 16/47/2 42/48/2
f 42/1/17 41/2/17 40/3/17 39/4/17
f 44/1/18 17/2/18 21/3/18 43/4/18
f 46/41/19 22/42/19 5/43/19 45/44/19
f 43/45/2 21/46/2 22/47/2 46/48/2
f 46/1/20 45/2/20 44/3/20 43/4/20
