# Blender 4.0.2
# www.blender.org
mtllib tile_straight.mtl
o tile_straight
v -2.000000 0.250000 3.250000
v 2.000000 0.250000 3.250000
v 3.250000 -0.500000 3.250000
v -3.250000 -0.500000 3.250000
v -2.000000 0.250000 -3.250000
v 2.000000 0.250000 -3.250000
v 3.250000 -0.500000 -3.250000
v -3.250000 -0.500000 -3.250000
v 2.000000 0.500000 3.250000
v 2.000000 0.500000 -3.250000
v 3.250000 0.500000 -3.250000
v 3.250000 0.500000 3.250000
v -2.000000 0.500000 -3.250000
v -2.000000 0.500000 3.250000
v -3.250000 0.500000 3.250000
v -3.250000 0.500000 -3.250000
vn -0.0000 -0.0000 1.0000
vn -0.0000 -0.0000 -1.0000
vn -0.0000 1.0000 -0.0000
vn -0.0000 -1.0000 -0.0000
vn -1.0000 -0.0000 -0.0000
vn 1.0000 -0.0000 -0.0000
vt 0.906300 0.906300
vt 0.968800 0.906300
vt 0.968800 0.968800
vt 0.906300 0.968800
vt 0.250000 0.125000
vt 0.625000 0.125000
vt 0.625000 0.875000
vt 0.250000 0.875000
vt 0.093800 0.187500
vt 0.156300 0.187500
vt 0.156300 0.937500
vt 0.093800 0.937500
vt 0.062500 0.937500
vt 0.062500 0.187500
vt 0.187500 0.187500
vt 0.187500 0.937500
s 0
usemtl tile_straight_mtl
f 4/1/1 3/2/1 2/3/1 1/4/1
f 7/1/2 8/2/2 5/3/2 6/4/2
f 1/5/3 2/6/3 6/7/3 5/8/3
f 8/1/4 7/2/4 3/3/4 4/4/4
f 10/9/5 6/10/5 2/11/5 9/12/5
f 11/1/2 7/2/2 6/3/2 10/4/2
f 12/1/6 3/2/6 7/3/6 11/4/6
f 9/1/1 2/2/1 3/3/1 12/4/1
f 12/13/3 11/14/3 10/15/3 9/16/3
f 14/9/6 1/10/6 5/11/6 13/12/6
f 15/1/1 4/2/1 1/3/1 14/4/1
f 16/1/5 8/2/5 4/3/5 15/4/5
f 13/1/2 5/2/2 8/3/2 16/4/2
f 16/13/3 15/14/3 14/15/3 13/16/3
