# Blender 4.0.2
# www.blender.org
mtllib tile_empty.mtl
o tile_empty
v -3.250000 0.500000 3.250000
v 3.250000 0.500000 3.250000
v 3.250000 -0.500000 3.250000
v -3.250000 -0.500000 3.250000
v -3.250000 0.500000 -3.250000
v 3.250000 0.500000 -3.250000
v 3.250000 -0.500000 -3.250000
v -3.250000 -0.500000 -3.250000
vn -0.0000 -0.0000 1.0000
vn -0.0000 -0.0000 -1.0000
vn -0.0000 1.0000 -0.0000
vn -1.0000 -0.0000 -0.0000
vn 1.0000 -0.0000 -0.0000
vn -0.0000 -1.0000 -0.0000
vt 0.000000 0.906300
vt 0.062500 0.906300
vt 0.062500 0.968800
vt 0.000000 0.968800
vt 0.312500 0.875000
vt 0.437500 0.875000
vt 0.437500 1.000000
vt 0.312500 1.000000
s 0
usemtl tile_empty_mtl
f 4/1/1 3/2/1 2/3/1 1/4/1
f 7/1/2 8/2/2 5/3/2 6/4/2
f 1/5/3 2/6/3 6/7/3 5/8/3
f 8/1/4 4/2/4 1/3/4 5/4/4
f 3/1/5 7/2/5 6/3/5 2/4/5
f 8/1/6 7/2/6 3/3/6 4/4/6
