# Blender 4.0.2
# www.blender.org
mtllib tile_t.mtl
o tile_t
v -3.250000 0.250000 2.000000
v 3.250000 0.250000 2.000000
v 3.250000 -0.500000 2.000000
v -3.250000 -0.500000 2.000000
v -3.250000 0.250000 -2.000000
v 3.250000 0.250000 -2.000000
v 3.250000 -0.500000 -2.000000
v -3.250000 -0.500000 -2.000000
v -3.250000 0.250000 3.250000
v 3.250000 0.250000 3.250000
v 3.250000 -0.500000 3.250000
v -3.250000 -0.500000 3.250000
v -3.250000 0.500000 3.250000
v -3.250000 0.500000 2.000000
v 3.250000 0.500000 2.000000
v 3.250000 0.500000 3.250000
v 2.000000 0.250000 -2.000000
v -2.000000 0.250000 -2.000000
v -2.000000 -0.500000 -2.000000
v 2.000000 -0.500000 -2.000000
v 2.000000 -0.500000 -3.250000
v 3.250000 -0.500000 -3.250000
v 3.250000 0.250000 -3.250000
v 2.000000 0.250000 -3.250000
v -2.000000 0.250000 -3.250000
v -3.250000 0.250000 -3.250000
v -3.250000 -0.500000 -3.250000
v -2.000000 -0.500000 -3.250000
v -2.000000 0.500000 -3.250000
v -2.000000 0.500000 -2.000000
v -3.250000 0.500000 -2.000000
v -3.250000 0.500000 -3.250000
v 3.250000 0.500000 -3.250000
v 3.250000 0.500000 -2.000000
v 2.000000 0.500000 -2.000000
v 2.000000 0.500000 -3.250000
vn -0.0000 1.0000 -0.0000
vn -1.0000 -0.0000 -0.0000
vn 1.0000 -0.0000 -0.0000
vn -0.0000 -1.0000 -0.0000
vn -0.0000 -0.0000 1.0000
vn -0.0000 -0.0000 -1.0000
vt 0.250000 1.000000
vt 0.250000 0.250000
vt 0.625000 0.250000
vt 0.625000 1.000000
vt 0.703100 0.859400
vt 0.765600 0.859400
vt 0.765600 0.921900
vt 0.703100 0.921900
vt 0.687500 0.890600
vt 0.750000 0.890600
vt 0.750000 0.953100
vt 0.687500 0.953100
vt 0.703100 0.828100
vt 0.765600 0.828100
vt 0.765600 0.890600
vt 0.703100 0.890600
vt 0.703100 0.875000
vt 0.765600 0.875000
vt 0.765600 0.937500
vt 0.703100 0.937500
vt 0.765600 0.843800
vt 0.828100 0.843800
vt 0.828100 0.906300
vt 0.765600 0.906300
vt 0.640600 0.843800
vt 0.703100 0.843800
vt 0.703100 0.906300
vt 0.640600 0.906300
vt 0.671900 0.875000
vt 0.734400 0.875000
vt 0.734400 0.937500
vt 0.671900 0.937500
vt 0.671900 0.843800
vt 0.734400 0.843800
vt 0.734400 0.906300
vt 0.671900 0.906300
vt 0.156300 0.250000
vt 0.218800 0.250000
vt 0.218800 1.000000
vt 0.156300 1.000000
vt 0.734400 0.812500
vt 0.796900 0.812500
vt 0.796900 0.875000
vt 0.734400 0.859400
vt 0.796900 0.859400
vt 0.796900 0.921900
vt 0.734400 0.921900
vt 0.125000 0.250000
vt 0.125000 1.000000
vt 0.687500 0.796900
vt 0.750000 0.796900
vt 0.750000 0.859400
vt 0.687500 0.859400
vt 0.687500 0.828100
vt 0.750000 0.828100
vt 0.671900 0.859400
vt 0.671900 0.921900
vt 0.718800 0.796900
vt 0.781300 0.796900
vt 0.781300 0.859400
vt 0.718800 0.859400
vt 0.750000 1.000000
vt 0.625000 0.500000
vt 0.750000 0.500000
vt 0.125000 0.968800
vt 0.125000 0.906300
vt 0.250000 0.906300
vt 0.250000 0.968800
vt 0.671900 0.812500
vt 0.125000 0.875000
vt 0.250000 0.875000
vt 0.656300 0.859400
vt 0.718800 0.921900
vt 0.656300 0.921900
vt 0.750000 0.812500
vt 0.812500 0.812500
vt 0.812500 0.875000
vt 0.750000 0.875000
s 0
usemtl tile_t_mtl
f 1/1/1 2/2/1 6/3/1 5/4/1
f 8/5/2 4/6/2 1/7/2 5/8/2
f 3/9/3 7/10/3 6/11/3 2/12/3
f 8/13/4 7/14/4 3/15/4 4/16/4
f 11/17/3 3/18/3 2/19/3 10/20/3
f 12/21/4 4/22/4 3/23/4 11/24/4
f 9/25/2 1/26/2 4/27/2 12/28/2
f 12/29/5 11/30/5 10/31/5 9/32/5
f 14/33/2 1/34/2 9/35/2 13/36/2
f 15/37/6 2/38/6 1/39/6 14/40/6
f 16/41/3 10/42/3 2/43/3 15/30/3
f 13/44/5 9/45/5 10/46/5 16/47/5
f 16/48/1 15/2/1 14/1/1 13/49/1
f 22/50/4 7/51/4 20/52/4 21/53/4
f 23/54/3 6/55/3 7/10/3 22/9/3
f 24/41/6 23/42/6 22/43/6 21/30/6
f 27/56/2 8/44/2 5/47/2 26/57/2
f 28/58/4 19/59/4 8/60/4 27/61/4
f 28/17/6 27/18/6 26/19/6 25/20/6
f 21/50/4 20/51/4 19/52/4 28/53/4
f 21/17/6 28/18/6 25/19/6 24/20/6
f 25/62/1 18/4/1 17/63/1 24/64/1
f 30/65/3 18/66/3 25/67/3 29/68/3
f 31/65/5 5/66/5 18/67/5 30/68/5
f 32/21/2 26/22/2 5/23/2 31/24/2
f 29/69/6 25/41/6 26/30/6 32/29/6
f 32/70/1 31/71/1 30/1/1 29/49/1
f 34/72/3 6/61/3 23/73/3 33/74/3
f 35/65/5 17/66/5 6/67/5 34/68/5
f 36/65/2 24/66/2 17/67/2 35/68/2
f 33/75/6 23/76/6 24/77/6 36/78/6
f 36/70/1 35/71/1 34/1/1 33/49/1
