# Blender 4.0.2
# www.blender.org
mtllib tile_build_md.mtl
o tile_build_md
v -3.250000 0.500000 3.250000
v 3.250000 0.500000 3.250000
v 3.250000 -0.500000 3.250000
v -3.250000 -0.500000 3.250000
v -3.250000 0.500000 -3.250000
v 3.250000 0.500000 -3.250000
v 3.250000 -0.500000 -3.250000
v -3.250000 -0.500000 -3.250000
v -2.250000 0.500000 -2.750000
v 2.250000 0.500000 -2.750000
v 2.250000 0.500000 2.750000
v -2.250000 0.500000 2.750000
v -2.250000 7.250000 -2.750000
v 2.250000 7.250000 -2.750000
v 2.250000 7.250000 2.750000
v -2.250000 7.250000 2.750000
vn -0.0000 -0.0000 1.0000
vn -0.0000 -0.0000 -1.0000
vn -1.0000 -0.0000 -0.0000
vn 1.0000 -0.0000 -0.0000
vn -0.0000 -1.0000 -0.0000
vn -0.0000 1.0000 -0.0000
vt 0.000000 0.906300
vt 0.062500 0.906300
vt 0.062500 0.968800
vt 0.000000 0.968800
vt 0.296900 0.859400
vt 0.281300 0.843800
vt 0.406300 0.843800
vt 0.390600 0.859400
vt 0.296900 0.875000
vt 0.390600 0.875000
vt 0.312500 0.859400
vt 0.375000 0.859400
vt 0.703100 0.984400
vt 0.703100 0.671900
vt 0.921900 0.671900
vt 0.921900 0.984400
vt 0.453100 0.984400
vt 0.453100 0.671900
vt 0.703100 0.421900
vt 0.703100 0.640600
vt 0.453100 0.640600
vt 0.453100 0.421900
s 0
usemtl tile_build_md_mtl
f 4/1/1 3/2/1 2/3/1 1/4/1
f 7/1/2 8/2/2 5/3/2 6/4/2
f 8/1/3 4/2/3 1/3/3 5/4/3
f 3/1/4 7/2/4 6/3/4 2/4/4
f 8/1/5 7/2/5 3/3/5 4/4/5
f 10/5/6 6/6/6 5/7/6 9/8/6
f 11/9/6 2/6/6 6/7/6 10/10/6
f 12/11/6 1/6/6 2/7/6 11/12/6
f 9/9/6 5/6/6 1/7/6 12/10/6
f 14/13/2 10/14/2 9/15/2 13/16/2
f 15/17/4 11/18/4 10/14/4 14/13/4
f 16/13/1 12/14/1 11/15/1 15/16/1
f 13/17/3 9/18/3 12/14/3 16/13/3
f 16/19/6 15/20/6 14/21/6 13/22/6
