# Blender 4.0.2
# www.blender.org
mtllib tile_build_sm.mtl
o tile_build_sm
v -3.250000 0.500000 3.250000
v 3.250000 0.500000 3.250000
v 3.250000 -0.500000 3.250000
v -3.250000 -0.500000 3.250000
v -3.250000 0.500000 -3.250000
v 3.250000 0.500000 -3.250000
v 3.250000 -0.500000 -3.250000
v -3.250000 -0.500000 -3.250000
v -2.750000 0.500000 -2.750000
v 2.750000 0.500000 -2.750000
v 2.750000 0.500000 2.750000
v -2.750000 0.500000 2.750000
v -2.750000 3.750000 -2.750000
v 2.750000 3.750000 -2.750000
v 2.750000 3.750000 2.750000
v -2.750000 3.750000 2.750000
vn -0.0000 -0.0000 1.0000
vn -0.0000 -0.0000 -1.0000
vn -1.0000 -0.0000 -0.0000
vn 1.0000 -0.0000 -0.0000
vn -0.0000 -1.0000 -0.0000
vn -0.0000 1.0000 -0.0000
vt 0.546900 0.921900
vt 0.609400 0.921900
vt 0.609400 0.984400
vt 0.546900 0.984400
vt 0.390600 0.875000
vt 0.375000 0.843800
vt 0.500000 0.843800
vt 0.484400 0.875000
vt 0.390600 0.859400
vt 0.484400 0.859400
vt 0.078100 0.984400
vt 0.078100 0.828100
vt 0.328100 0.828100
vt 0.328100 0.984400
s 0
usemtl tile_build_sm_mtl
f 4/1/1 3/2/1 2/3/1 1/4/1
f 7/1/2 8/2/2 5/3/2 6/4/2
f 8/1/3 4/2/3 1/3/3 5/4/3
f 3/1/4 7/2/4 6/3/4 2/4/4
f 8/1/5 7/2/5 3/3/5 4/4/5
f 10/5/6 6/6/6 5/7/6 9/8/6
f 11/9/6 2/6/6 6/7/6 10/10/6
f 12/9/6 1/6/6 2/7/6 11/10/6
f 9/5/6 5/6/6 1/7/6 12/8/6
f 14/11/2 10/12/2 9/13/2 13/14/2
f 15/11/4 11/12/4 10/13/4 14/14/4
f 16/11/1 12/12/1 11/13/1 15/14/1
f 13/11/3 9/12/3 12/13/3 16/14/3
f 16/1/6 15/2/6 14/3/6 13/4/6
